<?xml version="1.0" standalone="no"?><svg xmlns="http://www.w3.org/2000/svg" viewBox="0 0 1440 320"><path fill="#00cba9" fill-opacity="1" d="M0,96L40,106.7C80,117,160,139,240,170.7C320,203,400,245,480,234.7C560,224,640,160,720,133.3C800,107,880,117,960,149.3C1040,181,1120,235,1200,213.3C1280,192,1360,96,1400,48L1440,0L1440,320L1400,320C1360,320,1280,320,1200,320C1120,320,1040,320,960,320C880,320,800,320,720,320C640,320,560,320,480,320C400,320,320,320,240,320C160,320,80,320,40,320L0,320Z"></path></svg>